<?xml version="1.0" encoding="utf-8"?>
<svg xmlns="http://www.w3.org/2000/svg" xmlns:xlink="http://www.w3.org/1999/xlink" width="896" height="448" viewBox="0 0 3584 1792">
<defs>
  <clipPath id="clip050">
    <rect x="0" y="0" width="3584" height="1792"/>
  </clipPath>
</defs>
<path clip-path="url(#clip050)" d="
M0 1792 L3584 1792 L3584 0 L0 0  Z
  " fill="#ffffff" fill-rule="evenodd" fill-opacity="1"/>
<defs>
  <clipPath id="clip051">
    <rect x="716" y="0" width="2510" height="1792"/>
  </clipPath>
</defs>
<path clip-path="url(#clip050)" d="
M168.438 1685.17 L3536.76 1685.17 L3536.76 47.2441 L168.438 47.2441  Z
  " fill="#ffffff" fill-rule="evenodd" fill-opacity="1"/>
<defs>
  <clipPath id="clip052">
    <rect x="168" y="47" width="3369" height="1639"/>
  </clipPath>
</defs>
<path clip-path="url(#clip052)" d="
M391.64 47.2441 L432.222 47.2441 L432.222 1685.17 L391.64 1685.17  Z
  " fill="#000000" fill-rule="evenodd" fill-opacity="1"/>
<polyline clip-path="url(#clip052)" style="stroke:#000000; stroke-linecap:butt; stroke-linejoin:round; stroke-width:4; stroke-opacity:1; fill:none" points="
  391.64,47.2441 432.222,47.2441 
  "/>
<path clip-path="url(#clip052)" d="
M452.513 47.2441 L472.804 47.2441 L472.804 1685.17 L452.513 1685.17  Z
  " fill="#000000" fill-rule="evenodd" fill-opacity="1"/>
<polyline clip-path="url(#clip052)" style="stroke:#000000; stroke-linecap:butt; stroke-linejoin:round; stroke-width:4; stroke-opacity:1; fill:none" points="
  452.513,47.2441 472.804,47.2441 
  "/>
<path clip-path="url(#clip052)" d="
M513.386 47.2441 L533.678 47.2441 L533.678 1685.17 L513.386 1685.17  Z
  " fill="#000000" fill-rule="evenodd" fill-opacity="1"/>
<polyline clip-path="url(#clip052)" style="stroke:#000000; stroke-linecap:butt; stroke-linejoin:round; stroke-width:4; stroke-opacity:1; fill:none" points="
  513.386,47.2441 533.678,47.2441 
  "/>
<path clip-path="url(#clip052)" d="
M614.842 47.2441 L635.133 47.2441 L635.133 1685.17 L614.842 1685.17  Z
  " fill="#000000" fill-rule="evenodd" fill-opacity="1"/>
<polyline clip-path="url(#clip052)" style="stroke:#000000; stroke-linecap:butt; stroke-linejoin:round; stroke-width:4; stroke-opacity:1; fill:none" points="
  614.842,47.2441 635.133,47.2441 
  "/>
<path clip-path="url(#clip052)" d="
M696.006 47.2441 L716.297 47.2441 L716.297 1685.17 L696.006 1685.17  Z
  " fill="#000000" fill-rule="evenodd" fill-opacity="1"/>
<polyline clip-path="url(#clip052)" style="stroke:#000000; stroke-linecap:butt; stroke-linejoin:round; stroke-width:4; stroke-opacity:1; fill:none" points="
  696.006,47.2441 716.297,47.2441 
  "/>
<path clip-path="url(#clip052)" d="
M736.588 47.2441 L777.17 47.2441 L777.17 1685.17 L736.588 1685.17  Z
  " fill="#000000" fill-rule="evenodd" fill-opacity="1"/>
<polyline clip-path="url(#clip052)" style="stroke:#000000; stroke-linecap:butt; stroke-linejoin:round; stroke-width:4; stroke-opacity:1; fill:none" points="
  736.588,47.2441 777.17,47.2441 
  "/>
<path clip-path="url(#clip052)" d="
M838.044 47.2441 L858.335 47.2441 L858.335 1685.17 L838.044 1685.17  Z
  " fill="#000000" fill-rule="evenodd" fill-opacity="1"/>
<polyline clip-path="url(#clip052)" style="stroke:#000000; stroke-linecap:butt; stroke-linejoin:round; stroke-width:4; stroke-opacity:1; fill:none" points="
  838.044,47.2441 858.335,47.2441 
  "/>
<path clip-path="url(#clip052)" d="
M898.917 47.2441 L919.208 47.2441 L919.208 1685.17 L898.917 1685.17  Z
  " fill="#000000" fill-rule="evenodd" fill-opacity="1"/>
<polyline clip-path="url(#clip052)" style="stroke:#000000; stroke-linecap:butt; stroke-linejoin:round; stroke-width:4; stroke-opacity:1; fill:none" points="
  898.917,47.2441 919.208,47.2441 
  "/>
<path clip-path="url(#clip052)" d="
M939.499 47.2441 L980.081 47.2441 L980.081 1685.17 L939.499 1685.17  Z
  " fill="#000000" fill-rule="evenodd" fill-opacity="1"/>
<polyline clip-path="url(#clip052)" style="stroke:#000000; stroke-linecap:butt; stroke-linejoin:round; stroke-width:4; stroke-opacity:1; fill:none" points="
  939.499,47.2441 980.081,47.2441 
  "/>
<path clip-path="url(#clip052)" d="
M1061.25 47.2441 L1081.54 47.2441 L1081.54 1685.17 L1061.25 1685.17  Z
  " fill="#000000" fill-rule="evenodd" fill-opacity="1"/>
<polyline clip-path="url(#clip052)" style="stroke:#000000; stroke-linecap:butt; stroke-linejoin:round; stroke-width:4; stroke-opacity:1; fill:none" points="
  1061.25,47.2441 1081.54,47.2441 
  "/>
<path clip-path="url(#clip052)" d="
M1122.12 47.2441 L1142.41 47.2441 L1142.41 1685.17 L1122.12 1685.17  Z
  " fill="#000000" fill-rule="evenodd" fill-opacity="1"/>
<polyline clip-path="url(#clip052)" style="stroke:#000000; stroke-linecap:butt; stroke-linejoin:round; stroke-width:4; stroke-opacity:1; fill:none" points="
  1122.12,47.2441 1142.41,47.2441 
  "/>
<path clip-path="url(#clip052)" d="
M1182.99 47.2441 L1264.16 47.2441 L1264.16 1685.17 L1182.99 1685.17  Z
  " fill="#000000" fill-rule="evenodd" fill-opacity="1"/>
<polyline clip-path="url(#clip052)" style="stroke:#000000; stroke-linecap:butt; stroke-linejoin:round; stroke-width:4; stroke-opacity:1; fill:none" points="
  1182.99,47.2441 1264.16,47.2441 
  "/>
<path clip-path="url(#clip052)" d="
M1284.45 47.2441 L1304.74 47.2441 L1304.74 1685.17 L1284.45 1685.17  Z
  " fill="#000000" fill-rule="evenodd" fill-opacity="1"/>
<polyline clip-path="url(#clip052)" style="stroke:#000000; stroke-linecap:butt; stroke-linejoin:round; stroke-width:4; stroke-opacity:1; fill:none" points="
  1284.45,47.2441 1304.74,47.2441 
  "/>
<path clip-path="url(#clip052)" d="
M1385.9 47.2441 L1406.19 47.2441 L1406.19 1685.17 L1385.9 1685.17  Z
  " fill="#000000" fill-rule="evenodd" fill-opacity="1"/>
<polyline clip-path="url(#clip052)" style="stroke:#000000; stroke-linecap:butt; stroke-linejoin:round; stroke-width:4; stroke-opacity:1; fill:none" points="
  1385.9,47.2441 1406.19,47.2441 
  "/>
<path clip-path="url(#clip052)" d="
M1426.48 47.2441 L1467.07 47.2441 L1467.07 1685.17 L1426.48 1685.17  Z
  " fill="#000000" fill-rule="evenodd" fill-opacity="1"/>
<polyline clip-path="url(#clip052)" style="stroke:#000000; stroke-linecap:butt; stroke-linejoin:round; stroke-width:4; stroke-opacity:1; fill:none" points="
  1426.48,47.2441 1467.07,47.2441 
  "/>
<path clip-path="url(#clip052)" d="
M1507.65 47.2441 L1527.94 47.2441 L1527.94 1685.17 L1507.65 1685.17  Z
  " fill="#000000" fill-rule="evenodd" fill-opacity="1"/>
<polyline clip-path="url(#clip052)" style="stroke:#000000; stroke-linecap:butt; stroke-linejoin:round; stroke-width:4; stroke-opacity:1; fill:none" points="
  1507.65,47.2441 1527.94,47.2441 
  "/>
<path clip-path="url(#clip052)" d="
M1588.81 47.2441 L1669.98 47.2441 L1669.98 1685.17 L1588.81 1685.17  Z
  " fill="#000000" fill-rule="evenodd" fill-opacity="1"/>
<polyline clip-path="url(#clip052)" style="stroke:#000000; stroke-linecap:butt; stroke-linejoin:round; stroke-width:4; stroke-opacity:1; fill:none" points="
  1588.81,47.2441 1669.98,47.2441 
  "/>
<path clip-path="url(#clip052)" d="
M1690.27 47.2441 L1710.56 47.2441 L1710.56 1685.17 L1690.27 1685.17  Z
  " fill="#000000" fill-rule="evenodd" fill-opacity="1"/>
<polyline clip-path="url(#clip052)" style="stroke:#000000; stroke-linecap:butt; stroke-linejoin:round; stroke-width:4; stroke-opacity:1; fill:none" points="
  1690.27,47.2441 1710.56,47.2441 
  "/>
<path clip-path="url(#clip052)" d="
M1730.85 47.2441 L1751.14 47.2441 L1751.14 1685.17 L1730.85 1685.17  Z
  " fill="#000000" fill-rule="evenodd" fill-opacity="1"/>
<polyline clip-path="url(#clip052)" style="stroke:#000000; stroke-linecap:butt; stroke-linejoin:round; stroke-width:4; stroke-opacity:1; fill:none" points="
  1730.85,47.2441 1751.14,47.2441 
  "/>
<path clip-path="url(#clip052)" d="
M1832.31 47.2441 L1852.6 47.2441 L1852.6 1685.17 L1832.31 1685.17  Z
  " fill="#000000" fill-rule="evenodd" fill-opacity="1"/>
<polyline clip-path="url(#clip052)" style="stroke:#000000; stroke-linecap:butt; stroke-linejoin:round; stroke-width:4; stroke-opacity:1; fill:none" points="
  1832.31,47.2441 1852.6,47.2441 
  "/>
<path clip-path="url(#clip052)" d="
M1893.18 47.2441 L1933.76 47.2441 L1933.76 1685.17 L1893.18 1685.17  Z
  " fill="#000000" fill-rule="evenodd" fill-opacity="1"/>
<polyline clip-path="url(#clip052)" style="stroke:#000000; stroke-linecap:butt; stroke-linejoin:round; stroke-width:4; stroke-opacity:1; fill:none" points="
  1893.18,47.2441 1933.76,47.2441 
  "/>
<path clip-path="url(#clip052)" d="
M1954.05 47.2441 L1974.34 47.2441 L1974.34 1685.17 L1954.05 1685.17  Z
  " fill="#000000" fill-rule="evenodd" fill-opacity="1"/>
<polyline clip-path="url(#clip052)" style="stroke:#000000; stroke-linecap:butt; stroke-linejoin:round; stroke-width:4; stroke-opacity:1; fill:none" points="
  1954.05,47.2441 1974.34,47.2441 
  "/>
<path clip-path="url(#clip052)" d="
M1994.63 47.2441 L2035.22 47.2441 L2035.22 1685.17 L1994.63 1685.17  Z
  " fill="#000000" fill-rule="evenodd" fill-opacity="1"/>
<polyline clip-path="url(#clip052)" style="stroke:#000000; stroke-linecap:butt; stroke-linejoin:round; stroke-width:4; stroke-opacity:1; fill:none" points="
  1994.63,47.2441 2035.22,47.2441 
  "/>
<path clip-path="url(#clip052)" d="
M2075.8 47.2441 L2096.09 47.2441 L2096.09 1685.17 L2075.8 1685.17  Z
  " fill="#000000" fill-rule="evenodd" fill-opacity="1"/>
<polyline clip-path="url(#clip052)" style="stroke:#000000; stroke-linecap:butt; stroke-linejoin:round; stroke-width:4; stroke-opacity:1; fill:none" points="
  2075.8,47.2441 2096.09,47.2441 
  "/>
<path clip-path="url(#clip052)" d="
M2177.25 47.2441 L2197.55 47.2441 L2197.55 1685.17 L2177.25 1685.17  Z
  " fill="#000000" fill-rule="evenodd" fill-opacity="1"/>
<polyline clip-path="url(#clip052)" style="stroke:#000000; stroke-linecap:butt; stroke-linejoin:round; stroke-width:4; stroke-opacity:1; fill:none" points="
  2177.25,47.2441 2197.55,47.2441 
  "/>
<path clip-path="url(#clip052)" d="
M2238.13 47.2441 L2278.71 47.2441 L2278.71 1685.17 L2238.13 1685.17  Z
  " fill="#000000" fill-rule="evenodd" fill-opacity="1"/>
<polyline clip-path="url(#clip052)" style="stroke:#000000; stroke-linecap:butt; stroke-linejoin:round; stroke-width:4; stroke-opacity:1; fill:none" points="
  2238.13,47.2441 2278.71,47.2441 
  "/>
<path clip-path="url(#clip052)" d="
M2319.29 47.2441 L2380.16 47.2441 L2380.16 1685.17 L2319.29 1685.17  Z
  " fill="#000000" fill-rule="evenodd" fill-opacity="1"/>
<polyline clip-path="url(#clip052)" style="stroke:#000000; stroke-linecap:butt; stroke-linejoin:round; stroke-width:4; stroke-opacity:1; fill:none" points="
  2319.29,47.2441 2380.16,47.2441 
  "/>
<path clip-path="url(#clip052)" d="
M2400.46 47.2441 L2420.75 47.2441 L2420.75 1685.17 L2400.46 1685.17  Z
  " fill="#000000" fill-rule="evenodd" fill-opacity="1"/>
<polyline clip-path="url(#clip052)" style="stroke:#000000; stroke-linecap:butt; stroke-linejoin:round; stroke-width:4; stroke-opacity:1; fill:none" points="
  2400.46,47.2441 2420.75,47.2441 
  "/>
<path clip-path="url(#clip052)" d="
M2501.91 47.2441 L2542.49 47.2441 L2542.49 1685.17 L2501.91 1685.17  Z
  " fill="#000000" fill-rule="evenodd" fill-opacity="1"/>
<polyline clip-path="url(#clip052)" style="stroke:#000000; stroke-linecap:butt; stroke-linejoin:round; stroke-width:4; stroke-opacity:1; fill:none" points="
  2501.91,47.2441 2542.49,47.2441 
  "/>
<path clip-path="url(#clip052)" d="
M2583.08 47.2441 L2603.37 47.2441 L2603.37 1685.17 L2583.08 1685.17  Z
  " fill="#000000" fill-rule="evenodd" fill-opacity="1"/>
<polyline clip-path="url(#clip052)" style="stroke:#000000; stroke-linecap:butt; stroke-linejoin:round; stroke-width:4; stroke-opacity:1; fill:none" points="
  2583.08,47.2441 2603.37,47.2441 
  "/>
<path clip-path="url(#clip052)" d="
M2623.66 47.2441 L2664.24 47.2441 L2664.24 1685.17 L2623.66 1685.17  Z
  " fill="#000000" fill-rule="evenodd" fill-opacity="1"/>
<polyline clip-path="url(#clip052)" style="stroke:#000000; stroke-linecap:butt; stroke-linejoin:round; stroke-width:4; stroke-opacity:1; fill:none" points="
  2623.66,47.2441 2664.24,47.2441 
  "/>
<path clip-path="url(#clip052)" d="
M2704.82 47.2441 L2725.11 47.2441 L2725.11 1685.17 L2704.82 1685.17  Z
  " fill="#000000" fill-rule="evenodd" fill-opacity="1"/>
<polyline clip-path="url(#clip052)" style="stroke:#000000; stroke-linecap:butt; stroke-linejoin:round; stroke-width:4; stroke-opacity:1; fill:none" points="
  2704.82,47.2441 2725.11,47.2441 
  "/>
<path clip-path="url(#clip052)" d="
M2745.4 47.2441 L2765.7 47.2441 L2765.7 1685.17 L2745.4 1685.17  Z
  " fill="#000000" fill-rule="evenodd" fill-opacity="1"/>
<polyline clip-path="url(#clip052)" style="stroke:#000000; stroke-linecap:butt; stroke-linejoin:round; stroke-width:4; stroke-opacity:1; fill:none" points="
  2745.4,47.2441 2765.7,47.2441 
  "/>
<path clip-path="url(#clip052)" d="
M2846.86 47.2441 L2887.44 47.2441 L2887.44 1685.17 L2846.86 1685.17  Z
  " fill="#000000" fill-rule="evenodd" fill-opacity="1"/>
<polyline clip-path="url(#clip052)" style="stroke:#000000; stroke-linecap:butt; stroke-linejoin:round; stroke-width:4; stroke-opacity:1; fill:none" points="
  2846.86,47.2441 2887.44,47.2441 
  "/>
<path clip-path="url(#clip052)" d="
M2928.02 47.2441 L2968.61 47.2441 L2968.61 1685.17 L2928.02 1685.17  Z
  " fill="#000000" fill-rule="evenodd" fill-opacity="1"/>
<polyline clip-path="url(#clip052)" style="stroke:#000000; stroke-linecap:butt; stroke-linejoin:round; stroke-width:4; stroke-opacity:1; fill:none" points="
  2928.02,47.2441 2968.61,47.2441 
  "/>
<path clip-path="url(#clip052)" d="
M2988.9 47.2441 L3029.48 47.2441 L3029.48 1685.17 L2988.9 1685.17  Z
  " fill="#000000" fill-rule="evenodd" fill-opacity="1"/>
<polyline clip-path="url(#clip052)" style="stroke:#000000; stroke-linecap:butt; stroke-linejoin:round; stroke-width:4; stroke-opacity:1; fill:none" points="
  2988.9,47.2441 3029.48,47.2441 
  "/>
<path clip-path="url(#clip052)" d="
M3070.06 47.2441 L3110.64 47.2441 L3110.64 1685.17 L3070.06 1685.17  Z
  " fill="#000000" fill-rule="evenodd" fill-opacity="1"/>
<polyline clip-path="url(#clip052)" style="stroke:#000000; stroke-linecap:butt; stroke-linejoin:round; stroke-width:4; stroke-opacity:1; fill:none" points="
  3070.06,47.2441 3110.64,47.2441 
  "/>
<path clip-path="url(#clip052)" d="
M3171.52 47.2441 L3232.39 47.2441 L3232.39 1685.17 L3171.52 1685.17  Z
  " fill="#000000" fill-rule="evenodd" fill-opacity="1"/>
<polyline clip-path="url(#clip052)" style="stroke:#000000; stroke-linecap:butt; stroke-linejoin:round; stroke-width:4; stroke-opacity:1; fill:none" points="
  3171.52,47.2441 3232.39,47.2441 
  "/>
<path clip-path="url(#clip052)" d="
M3252.68 47.2441 L3272.97 47.2441 L3272.97 1685.17 L3252.68 1685.17  Z
  " fill="#000000" fill-rule="evenodd" fill-opacity="1"/>
<polyline clip-path="url(#clip052)" style="stroke:#000000; stroke-linecap:butt; stroke-linejoin:round; stroke-width:4; stroke-opacity:1; fill:none" points="
  3252.68,47.2441 3272.97,47.2441 
  "/>
<path clip-path="url(#clip052)" d="
M3293.26 47.2441 L3333.85 47.2441 L3333.85 1685.17 L3293.26 1685.17  Z
  " fill="#000000" fill-rule="evenodd" fill-opacity="1"/>
<polyline clip-path="url(#clip052)" style="stroke:#000000; stroke-linecap:butt; stroke-linejoin:round; stroke-width:4; stroke-opacity:1; fill:none" points="
  3293.26,47.2441 3333.85,47.2441 
  "/>
</svg>
